{
  "accessors": [
    {
      "bufferView": 1,
      "componentType": 5126,
      "count": 65532,
      "max": [
        6.235846996307373,
        9.998291015625,
        2.6963081359863281
      ],
      "min": [
        0.90649008750915527,
        0.63339662551879883,
        0
      ],
      "type": "VEC3"
    },
    {
      "bufferView": 1,
      "byteOffset": 786384,
      "componentType": 5126,
      "count": 65532,
      "max": [
        0.99999511241912842,
        0.9995148777961731,
        0.9999992847442627
      ],
      "min": [
        -0.99997878074645996,
        -0.99728041887283325,
        -0.99999690055847168
      ],
      "type": "VEC3"
    },
    {
      "bufferView": 0,
      "componentType": 5125,
      "count": 341904,
      "max": [
        65531
      ],
      "min": [
        0
      ],
      "type": "SCALAR"
    },
    {
      "bufferView": 1,
      "byteOffset": 1572768,
      "componentType": 5126,
      "count": 65534,
      "max": [
        6.2354230880737305,
        9.9478950500488281,
        2.7000088691711426
      ],
      "min": [
        0,
        0,
        0.0067239999771118164
      ],
      "type": "VEC3"
    },
    {
      "bufferView": 1,
      "byteOffset": 2359176,
      "componentType": 5126,
      "count": 65534,
      "max": [
        0.99983435869216919,
        0.99484527111053467,
        0.99999773502349854
      ],
      "min": [
        -0.99996483325958252,
        -0.99989330768585205,
        -0.99999892711639404
      ],
      "type": "VEC3"
    },
    {
      "bufferView": 0,
      "byteOffset": 1367616,
      "componentType": 5125,
      "count": 331230,
      "max": [
        65533
      ],
      "min": [
        0
      ],
      "type": "SCALAR"
    },
    {
      "bufferView": 1,
      "byteOffset": 3145584,
      "componentType": 5126,
      "count": 19476,
      "max": [
        6.1654758453369141,
        9.9619293212890625,
        2.6889760494232178
      ],
      "min": [
        0.0099840164184570312,
        0.0098237991333007812,
        0.47549700736999512
      ],
      "type": "VEC3"
    },
    {
      "bufferView": 1,
      "byteOffset": 3379296,
      "componentType": 5126,
      "count": 19476,
      "max": [
        0.99913430213928223,
        0.98622864484786987,
        0.9999920129776001
      ],
      "min": [
        -0.99957334995269775,
        -0.97869813442230225,
        -0.99999547004699707
      ],
      "type": "VEC3"
    },
    {
      "bufferView": 0,
      "byteOffset": 2692536,
      "componentType": 5125,
      "count": 38532,
      "max": [
        19475
      ],
      "min": [
        0
      ],
      "type": "SCALAR"
    }
  ],
  "asset": {
    "extras": {
      "author": "Ian Christopher (https://sketchfab.com/ianchrisjohn)",
      "license": "CC-BY-4.0 (http://creativecommons.org/licenses/by/4.0/)",
      "source": "https://sketchfab.com/models/97208693ce4b43729cdcc35621c51bc0",
      "title": "Realistic Left Hand"
    },
    "generator": "Sketchfab-4.23.2",
    "version": "2.0"
  },
  "bufferViews": [
    {
      "buffer": 0,
      "byteLength": 2846664,
      "byteOffset": 0,
      "name": "floatBufferViews",
      "target": 34963
    },
    {
      "buffer": 0,
      "byteLength": 3613008,
      "byteOffset": 2846664,
      "byteStride": 12,
      "name": "floatBufferViews",
      "target": 34962
    }
  ],
  "buffers": [
    {
      "byteLength": 6459672,
      "uri": "scene.bin"
    }
  ],
  "materials": [
    {
      "doubleSided": true,
      "emissiveFactor": [
        0,
        0,
        0
      ],
      "name": "Material.001",
      "pbrMetallicRoughness": {
        "baseColorFactor": [
          0.5830405018,
          0.28185503150000002,
          0.1102265308,
          1
        ],
        "metallicFactor": 0,
        "roughnessFactor": 0.57488567069999996
      }
    }
  ],
  "meshes": [
    {
      "primitives": [
        {
          "attributes": {
            "NORMAL": 1,
            "POSITION": 0
          },
          "indices": 2,
          "material": 0,
          "mode": 4
        }
      ]
    },
    {
      "primitives": [
        {
          "attributes": {
            "NORMAL": 4,
            "POSITION": 3
          },
          "indices": 5,
          "material": 0,
          "mode": 4
        }
      ]
    },
    {
      "primitives": [
        {
          "attributes": {
            "NORMAL": 7,
            "POSITION": 6
          },
          "indices": 8,
          "material": 0,
          "mode": 4
        }
      ]
    }
  ],
  "nodes": [
    {
      "children": [
        1
      ],
      "name": "RootNode (gltf orientation matrix)",
      "rotation": [
        -0.70710678118654746,
        -0,
        -0,
        0.70710678118654757
      ]
    },
    {
      "children": [
        2
      ],
      "name": "RootNode (model correction matrix)"
    },
    {
      "children": [
        3
      ],
      "matrix": [
        1,
        0,
        0,
        0,
        0,
        1,
        0,
        0,
        0,
        0,
        1,
        0,
        -3.9989969730377197,
        -5.7125468254089355,
        -1.4266510009765625,
        1
      ],
      "name": "HandL_Hi.obj.cleaner.materialmerger.gles"
    },
    {
      "children": [
        4,
        5,
        6
      ],
      "name": ""
    },
    {
      "mesh": 0,
      "name": ""
    },
    {
      "mesh": 1,
      "name": ""
    },
    {
      "mesh": 2,
      "name": ""
    }
  ],
  "scene": 0,
  "scenes": [
    {
      "name": "OSG_Scene",
      "nodes": [
        0
      ]
    }
  ]
}

